<svg version="1.1" id="imagenie-logo" xmlns="http://www.w3.org/2000/svg" xmlns:xlink="http://www.w3.org/1999/xlink" x="0px"
	 y="0px" width="180px" height="25px" viewBox="0 0 180 25" enable-background="new 0 0 180 25" xml:space="preserve">
<path fill="#CFBCED" d="M1.6,1.296h7.424v22.433H1.6V1.296z"/>
<path fill="#CFBCED" d="M13.824,1.296h7.872l5.568,11.712L32.8,1.296h7.872v22.433h-6.496V11.44l-4.512,10.113h-4.832L20.32,11.44
	v12.289h-6.496V1.296z"/>
<path fill="#CFBCED" d="M61.855,23.729l-1.12-3.168H52.32l-1.152,3.168h-7.616l9.472-22.433h7.616l9.12,22.433H61.855z
	 M54.24,15.248h4.672l-2.304-6.56L54.24,15.248z"/>
<path fill="#CFBCED" d="M86.496,11.92h6.367v9.376c-1.26,0.854-2.811,1.558-4.656,2.112S84.64,24.24,83.04,24.24
	c-2.326,0-4.411-0.508-6.256-1.52c-1.845-1.014-3.291-2.411-4.336-4.193c-1.045-1.78-1.568-3.791-1.568-6.031
	c0-2.219,0.544-4.219,1.632-6c1.088-1.781,2.592-3.173,4.512-4.176c1.92-1.002,4.085-1.504,6.496-1.504
	c1.749,0,3.504,0.32,5.264,0.96c1.76,0.64,3.236,1.494,4.432,2.56l-4.191,5.088c-0.748-0.746-1.627-1.338-2.641-1.776
	c-1.013-0.437-1.979-0.656-2.896-0.656c-0.939,0-1.792,0.24-2.56,0.72s-1.365,1.136-1.792,1.968s-0.64,1.771-0.64,2.816
	c0,1.066,0.218,2.021,0.656,2.863c0.437,0.844,1.04,1.505,1.808,1.984c0.768,0.48,1.632,0.721,2.592,0.721
	c0.811,0,1.792-0.256,2.945-0.769V11.92z"/>
<path fill="#CFBCED" d="M97.215,1.296h18.977v5.632h-11.551V9.68h10.494v5.632h-10.494v2.783h11.84v5.633H97.215V1.296z"/>
<path fill="#CFBCED" d="M135.967,1.296h6.719v22.433h-6.207l-8.832-11.457v11.457h-6.752V1.296h6.207l8.865,11.521V1.296z"/>
<path fill="#CFBCED" d="M147.486,1.296h7.424v22.433h-7.424V1.296z"/>
<path fill="#CFBCED" d="M159.709,1.296h18.977v5.632h-11.551V9.68h10.494v5.632h-10.494v2.783h11.84v5.633h-19.266V1.296z"/>
</svg>
